<svg xmlns="http://www.w3.org/2000/svg" xmlns:xlink="http://www.w3.org/1999/xlink" width="13" height="23" viewBox="0 0 13 23">
  <defs>
    <clipPath id="clip-path">
      <rect width="13" height="23" fill="none"/>
    </clipPath>
  </defs>
  <g id="Repeat_Grid_13" data-name="Repeat Grid 13" clip-path="url(#clip-path)">
    <g transform="translate(-36 -5753)">
      <path id="icons8-facebook-f" d="M22,6.5h2.5A.5.5,0,0,0,25,6V2.631a.5.5,0,0,0-.462-.5C23.742,2.076,22.188,2,21.07,2,18,2,16,3.84,16,7.184V10.5H12.5a.5.5,0,0,0-.5.5v3.5a.5.5,0,0,0,.5.5H16v9.5a.5.5,0,0,0,.5.5H20a.5.5,0,0,0,.5-.5V15h3.611a.5.5,0,0,0,.5-.445l.389-3.5a.5.5,0,0,0-.5-.555h-4V8A1.5,1.5,0,0,1,22,6.5Z" transform="translate(24 5751)" fill="#1a2329"/>
    </g>
  </g>
</svg>
