<svg xmlns="http://www.w3.org/2000/svg" width="21.528" height="21.193" viewBox="0 0 21.528 21.193">
  <path id="Icon_awesome-instagram" data-name="Icon awesome-instagram" d="M10.761,7.4a5.434,5.434,0,1,0,5.518,5.434A5.468,5.468,0,0,0,10.761,7.4Zm0,8.966a3.533,3.533,0,1,1,3.588-3.533A3.567,3.567,0,0,1,10.761,16.367Zm7.031-9.189a1.287,1.287,0,1,1-1.287-1.267A1.274,1.274,0,0,1,17.792,7.178Zm3.655,1.286a6.219,6.219,0,0,0-1.739-4.441A6.467,6.467,0,0,0,15.2,2.312c-1.777-.1-7.1-.1-8.88,0a6.458,6.458,0,0,0-4.51,1.707A6.239,6.239,0,0,0,.07,8.46c-.1,1.75-.1,6.994,0,8.744a6.219,6.219,0,0,0,1.739,4.441,6.476,6.476,0,0,0,4.51,1.712c1.777.1,7.1.1,8.88,0a6.425,6.425,0,0,0,4.51-1.712A6.26,6.26,0,0,0,21.447,17.2c.1-1.75.1-6.99,0-8.739Zm-2.3,10.617A3.6,3.6,0,0,1,17.105,21.1c-1.417.553-4.779.426-6.344.426s-4.932.123-6.344-.426a3.6,3.6,0,0,1-2.046-2.015c-.562-1.4-.432-4.705-.432-6.247s-.125-4.857.432-6.247A3.6,3.6,0,0,1,4.417,4.573c1.417-.553,4.779-.426,6.344-.426s4.932-.123,6.344.426a3.6,3.6,0,0,1,2.046,2.015c.562,1.4.432,4.705.432,6.247S19.713,17.691,19.151,19.082Z" transform="translate(0.005 -2.238)" fill="#1a2329"/>
</svg>
