<svg xmlns="http://www.w3.org/2000/svg" width="22.215" height="22.214" viewBox="0 0 22.215 22.214">
  <path id="Icon_awesome-linkedin-in" data-name="Icon awesome-linkedin-in" d="M4.973,22.215H.367V7.384H4.973ZM2.667,5.361A2.68,2.68,0,1,1,5.335,2.668,2.69,2.69,0,0,1,2.667,5.361ZM22.21,22.215h-4.6V15c0-1.721-.035-3.927-2.395-3.927-2.395,0-2.761,1.869-2.761,3.8v7.344h-4.6V7.384h4.417V9.407h.064a4.839,4.839,0,0,1,4.358-2.4c4.661,0,5.518,3.069,5.518,7.056v8.147Z" transform="translate(0 -0.001)" fill="#1a2329"/>
</svg>
