<svg xmlns="http://www.w3.org/2000/svg" width="22.892" height="18.6" viewBox="0 0 22.892 18.6">
  <path id="twitter" d="M22.892,50.2a9.785,9.785,0,0,1-2.7.741,4.667,4.667,0,0,0,2.065-2.594,9.379,9.379,0,0,1-2.976,1.136,4.693,4.693,0,0,0-8.118,3.209,4.832,4.832,0,0,0,.109,1.07,13.284,13.284,0,0,1-9.673-4.909,4.694,4.694,0,0,0,1.442,6.273,4.635,4.635,0,0,1-2.12-.578V54.6a4.715,4.715,0,0,0,3.76,4.611,4.685,4.685,0,0,1-1.23.155,4.15,4.15,0,0,1-.889-.08,4.738,4.738,0,0,0,4.385,3.269,9.43,9.43,0,0,1-5.819,2A8.791,8.791,0,0,1,0,64.494,13.212,13.212,0,0,0,7.2,66.6,13.266,13.266,0,0,0,20.557,53.245c0-.207-.007-.408-.017-.607A9.362,9.362,0,0,0,22.892,50.2Z" transform="translate(0 -48)" fill="#1a2329"/>
</svg>
