<svg xmlns="http://www.w3.org/2000/svg" width="26.45" height="18.598" viewBox="0 0 26.45 18.598">
  <path id="Icon_awesome-youtube" data-name="Icon awesome-youtube" d="M26.947,7.41a3.323,3.323,0,0,0-2.338-2.354C22.546,4.5,14.275,4.5,14.275,4.5S6,4.5,3.941,5.056A3.324,3.324,0,0,0,1.6,7.41a34.864,34.864,0,0,0-.553,6.408A34.864,34.864,0,0,0,1.6,20.225a3.274,3.274,0,0,0,2.338,2.316C6,23.1,14.275,23.1,14.275,23.1s8.271,0,10.334-.556a3.274,3.274,0,0,0,2.338-2.316,34.864,34.864,0,0,0,.553-6.408,34.864,34.864,0,0,0-.553-6.408ZM11.57,17.75V9.885l6.913,3.933L11.57,17.75Z" transform="translate(-1.05 -4.5)" fill="#1a2329"/>
</svg>
