<?xml version="1.0" encoding="utf-8"?>
<!-- Generator: Adobe Illustrator 24.2.0, SVG Export Plug-In . SVG Version: 6.00 Build 0)  -->
<svg version="1.1" id="Layer_1" xmlns="http://www.w3.org/2000/svg" xmlns:xlink="http://www.w3.org/1999/xlink" x="0px" y="0px"
	 viewBox="0 0 272.74 75.41" style="enable-background:new 0 0 272.74 75.41;" xml:space="preserve">
<style type="text/css">
	.st0{fill:#009BDF;}
	.st1{fill:#F78F22;}
</style>
<g>
	<g>
		<path class="st0" d="M37.71,19.01L8.47,52.96C4.52,47.46,2.2,40.73,2.2,33.45c0-5.08,1.13-9.9,3.17-14.21L37.71,19.01z"/>
		<path class="st0" d="M56.23,7.08L15.08,7.07C20.75,2.64,27.89,0,35.65,0C43.41,0,50.55,2.64,56.23,7.08z"/>
		<path class="st0" d="M35.15,51.49l-5.2,14.92c-4.82-0.83-9.3-2.69-13.18-5.35l8.02-9.57H35.15z"/>
		<path class="st0" d="M69.1,33.45c0,15.87-11.05,29.16-25.87,32.59l19.43-25.88l4.68-6.24l-7.79-0.26l-4.81-0.16l8.92-18.36
			C67.1,20.4,69.1,26.7,69.1,33.45z"/>
		<g>
			<g>
				<polygon class="st1" points="60.9,11.51 48.36,37.36 59.41,37.72 37.54,66.85 31.12,75.41 34.09,66.87 40.86,47.43 28.1,47.43 
					59.44,9.94 61.84,7.08 64.76,3.58 				"/>
			</g>
		</g>
	</g>
	<g>
		<g>
			<path class="st0" d="M128.93,36.33l-8.29,13.14H78.3l8.11-9.58h27.78l2.6-3.54l-2.63-3.86H86.33L78.3,19.81l8.29-13.18h49.49
				l-11.28,9.58H93.03l-2.66,3.66l2.66,3.88h27.85L128.93,36.33z"/>
			<path class="st0" d="M176.76,49.47l-11.02-6.31V32.69h-22.22v10.52l-11.02,6.25V16.29l11.02-9.65h24.94l8.29,9.65V49.47z
				 M165.74,24.65v-8.36h-22.22v8.36H165.74z"/>
			<path class="st0" d="M227.88,19.38l-9.66,13.36h-25.75v10.41l-11.02,6.31V16.29l7.31-9.65h30.82L227.88,19.38z M216.58,20.6
				l-2.88-4.31h-21.21v8.36h21.18L216.58,20.6z"/>
			<path class="st0" d="M270.54,6.64l-5.8,11.51h-11.03v25l-11.02,6.31V18.15h-9.81l-7.44-11.51H270.54z"/>
		</g>
		<g>
			<path class="st0" d="M78.91,57.99v7.64h-1.05l0.01-7.64H78.91z"/>
			<path class="st0" d="M82.26,58.82c0.59-0.56,1.29-0.85,2.11-0.85c0.79,0,1.48,0.27,2.07,0.81c0.66,0.62,0.99,1.37,0.99,2.25v4.6
				h-1.04v-3.87c0.01-0.58,0-0.93-0.02-1.03c-0.08-0.49-0.31-0.9-0.68-1.23s-0.81-0.5-1.32-0.5c-0.53,0-0.99,0.18-1.38,0.55
				s-0.6,0.81-0.64,1.32v4.75H81.3l0.01-4.75C81.36,60.07,81.67,59.38,82.26,58.82z"/>
			<path class="st0" d="M90.67,58.82c0.59-0.56,1.29-0.85,2.11-0.85c0.79,0,1.48,0.27,2.07,0.81c0.66,0.62,0.99,1.37,0.99,2.25v4.6
				h-1.04v-3.87c0.01-0.58,0-0.93-0.02-1.03c-0.08-0.49-0.31-0.9-0.68-1.23s-0.81-0.5-1.32-0.5c-0.53,0-0.99,0.18-1.38,0.55
				s-0.6,0.81-0.64,1.32v4.75h-1.05l0.01-4.75C89.77,60.07,90.09,59.38,90.67,58.82z"/>
			<path class="st0" d="M104.68,60.5c0.01,0.08,0.03,0.25,0.04,0.5s0.02,0.58,0.03,0.98c0,0.4-0.04,0.82-0.13,1.24
				s-0.22,0.76-0.39,1.01c0,0.01,0,0.01-0.01,0.02c0,0.01-0.01,0.01-0.02,0.01c-0.26,0.4-0.6,0.73-1.03,0.97
				c-0.43,0.25-0.9,0.38-1.41,0.39h-0.7c-0.53,0-1.02-0.12-1.47-0.37c-0.45-0.25-0.81-0.58-1.08-1c-0.1-0.15-0.19-0.31-0.26-0.49
				c-0.07-0.18-0.13-0.34-0.16-0.49c-0.03-0.14-0.06-0.32-0.08-0.55C98.01,62.52,98,62.34,98,62.22s0-0.31,0.01-0.57
				c0-0.26,0.01-0.43,0.01-0.53c0-0.96,0.33-1.75,0.99-2.35c0.58-0.54,1.27-0.81,2.07-0.81h0.7c0-0.01,0.07,0,0.2,0.01
				s0.3,0.05,0.52,0.11s0.4,0.13,0.56,0.21c0.39,0.2,0.72,0.46,0.99,0.8C104.37,59.5,104.58,59.97,104.68,60.5z M103.67,62.86
				c0.01-0.05,0.01-0.17,0.02-0.37c0-0.2,0.01-0.42,0.01-0.66c0-0.24,0-0.51,0-0.8c0-0.6-0.23-1.11-0.7-1.52
				c-0.38-0.34-0.82-0.5-1.32-0.5h-0.6c-0.51,0-0.95,0.17-1.33,0.5c-0.38,0.33-0.6,0.74-0.68,1.23c-0.01,0.12-0.02,0.48-0.02,1.07
				c0,0.59,0.01,0.94,0.02,1.07c0.08,0.5,0.31,0.91,0.68,1.23c0.38,0.33,0.82,0.49,1.33,0.49h0.6c0.5,0,0.94-0.16,1.32-0.49
				C103.37,63.77,103.6,63.36,103.67,62.86z"/>
			<path class="st0" d="M112.81,58.22l-2.47,6.84c-0.07,0.17-0.17,0.3-0.32,0.41s-0.31,0.16-0.49,0.16c-0.18,0-0.34-0.05-0.49-0.16
				s-0.25-0.24-0.31-0.41l-2.48-6.84l0.96-0.34c1.16,3.18,1.9,5.21,2.22,6.09c0.01,0.05,0.05,0.08,0.1,0.08s0.09-0.03,0.11-0.08
				c0.31-0.88,1.05-2.91,2.22-6.09L112.81,58.22z"/>
			<path class="st0" d="M114.37,60.73c0.07-0.79,0.39-1.45,0.97-1.99s1.28-0.81,2.09-0.81c0.83,0,1.54,0.28,2.12,0.85
				c0.58,0.57,0.9,1.26,0.95,2.07c0.01,0.85,0.01,2.44,0.01,4.78h-1.05v-2.84h-4.06v2.84h-1.05
				C114.35,62.5,114.36,60.86,114.37,60.73z M119.46,61.74c0-0.55,0-0.85-0.01-0.88c-0.04-0.52-0.26-0.97-0.64-1.33
				s-0.84-0.55-1.38-0.55c-0.57,0-1.05,0.2-1.44,0.6c-0.39,0.4-0.59,0.88-0.59,1.44v0.72H119.46z"/>
			<path class="st0" d="M124.51,65.62v-6.61h-2.59v-1.03h6.21v1.03h-2.58v5.54v1.07H124.51z"/>
			<path class="st0" d="M131.05,57.99v7.64H130l0.01-7.64H131.05z"/>
			<path class="st0" d="M134.4,58.82c0.59-0.56,1.29-0.85,2.11-0.85c0.79,0,1.48,0.27,2.06,0.81c0.66,0.62,1,1.37,1,2.25v4.6h-1.04
				v-3.87c0.01-0.58,0-0.93-0.02-1.03c-0.08-0.49-0.31-0.9-0.68-1.23s-0.81-0.5-1.32-0.5c-0.53,0-0.99,0.18-1.38,0.55
				s-0.6,0.81-0.64,1.32v4.75h-1.05l0.01-4.75C133.49,60.07,133.81,59.38,134.4,58.82z"/>
			<path class="st0" d="M145.59,61.7c0.3,0,0.78,0,1.43,0c0.65,0,1.13,0,1.44,0c0,0.34,0,0.58-0.01,0.72c0,0.13-0.02,0.33-0.05,0.59
				s-0.08,0.48-0.16,0.68c-0.08,0.19-0.18,0.39-0.3,0.58c-0.26,0.4-0.61,0.73-1.03,0.97c-0.43,0.25-0.9,0.38-1.42,0.39h-0.7
				c-0.53,0-1.02-0.12-1.46-0.37c-0.44-0.25-0.81-0.58-1.08-1c-0.2-0.3-0.34-0.62-0.4-0.96s-0.11-0.75-0.12-1.24
				c-0.01-0.29-0.01-0.57-0.01-0.83s0.03-0.53,0.09-0.82s0.15-0.55,0.27-0.78c0.2-0.39,0.46-0.72,0.8-0.99
				c0.34-0.28,0.72-0.47,1.13-0.58c0.15-0.04,0.35-0.06,0.6-0.08c0.25-0.02,0.46-0.03,0.63-0.03c0.17,0,0.26,0,0.26,0.01
				c0.64,0.02,1.21,0.22,1.72,0.6c0.51,0.38,0.86,0.86,1.07,1.45l-0.97,0.34c-0.14-0.39-0.38-0.71-0.72-0.96
				c-0.34-0.25-0.74-0.38-1.19-0.38h-0.6c-0.56,0-1.04,0.2-1.43,0.6c-0.39,0.4-0.59,0.87-0.59,1.43c0,0.52,0,1.03,0,1.53
				c0,0.57,0.2,1.05,0.59,1.44c0.39,0.39,0.87,0.59,1.43,0.59h0.6c0.53,0,0.99-0.18,1.38-0.54c0.38-0.36,0.6-0.8,0.64-1.32h-1.83
				V61.7z"/>
			<path class="st0" d="M159.08,62.79c-0.3,0-0.75,0-1.35,0c-0.6,0-1.05,0-1.36,0v2.84h-1.05l0.01-7.64h3.73
				c0.66,0,1.22,0.24,1.69,0.71s0.71,1.04,0.71,1.7c0,0.66-0.23,1.22-0.69,1.69S159.73,62.79,159.08,62.79z M159.02,59.03
				c-0.74,0-1.62,0-2.66,0v2.72h2.69c0.36,0,0.68-0.13,0.95-0.39c0.27-0.26,0.4-0.58,0.4-0.96c0-0.37-0.13-0.69-0.4-0.96
				S159.41,59.03,159.02,59.03z"/>
			<path class="st0" d="M169.94,60.5c0.01,0.08,0.03,0.25,0.04,0.5s0.02,0.58,0.03,0.98s-0.04,0.82-0.13,1.24
				c-0.09,0.42-0.22,0.76-0.39,1.01c0,0.01,0,0.01,0,0.02c0,0.01-0.01,0.01-0.02,0.01c-0.25,0.4-0.6,0.73-1.03,0.97
				c-0.43,0.25-0.9,0.38-1.41,0.39h-0.7c-0.53,0-1.02-0.12-1.47-0.37c-0.45-0.25-0.81-0.58-1.08-1c-0.1-0.15-0.19-0.31-0.26-0.49
				c-0.07-0.18-0.13-0.34-0.16-0.49c-0.03-0.14-0.06-0.32-0.08-0.55c-0.02-0.22-0.03-0.39-0.03-0.51s0-0.31,0.01-0.57
				c0-0.26,0-0.43,0-0.53c0-0.96,0.33-1.75,0.99-2.35c0.58-0.54,1.27-0.81,2.07-0.81h0.7c0-0.01,0.07,0,0.2,0.01s0.3,0.05,0.52,0.11
				c0.21,0.06,0.4,0.13,0.56,0.21c0.39,0.2,0.72,0.46,0.99,0.8C169.63,59.5,169.84,59.97,169.94,60.5z M168.93,62.86
				c0.01-0.05,0.01-0.17,0.02-0.37c0-0.2,0.01-0.42,0.01-0.66c0-0.24,0-0.51,0-0.8c0-0.6-0.23-1.11-0.7-1.52
				c-0.38-0.34-0.82-0.5-1.32-0.5h-0.6c-0.51,0-0.95,0.17-1.33,0.5c-0.38,0.33-0.6,0.74-0.68,1.23c-0.01,0.12-0.02,0.48-0.02,1.07
				c0,0.59,0.01,0.94,0.02,1.07c0.08,0.5,0.31,0.91,0.68,1.23c0.38,0.33,0.82,0.49,1.33,0.49h0.6c0.5,0,0.94-0.16,1.32-0.49
				C168.63,63.77,168.86,63.36,168.93,62.86z"/>
			<path class="st0" d="M180.74,57.99c0,0.98,0,2.08,0.01,3.29l-0.01,1.92c0,0.68-0.23,1.25-0.7,1.72
				c-0.47,0.47-1.03,0.71-1.69,0.71c-0.31,0-0.6-0.05-0.89-0.16s-0.53-0.27-0.74-0.47c-0.01-0.01-0.03-0.03-0.07-0.08
				c-0.04-0.04-0.08-0.09-0.12-0.13s-0.06-0.06-0.06-0.07c-0.01,0.01-0.03,0.03-0.07,0.07s-0.08,0.08-0.12,0.13
				c-0.04,0.04-0.07,0.07-0.07,0.08c-0.2,0.2-0.45,0.36-0.74,0.47s-0.59,0.16-0.88,0.16c-0.67,0-1.24-0.24-1.7-0.71
				c-0.46-0.47-0.69-1.04-0.69-1.72l-0.01-1.95c0-1.21,0-2.3,0-3.27h1.05v5.21c0,0.39,0.13,0.72,0.39,0.99
				c0.26,0.27,0.58,0.4,0.96,0.4c0.37,0,0.69-0.13,0.96-0.4c0.27-0.27,0.4-0.59,0.4-0.97v-5.23h1.03v5.23c0,0.38,0.13,0.7,0.4,0.97
				c0.27,0.27,0.59,0.4,0.97,0.4s0.7-0.13,0.96-0.4c0.26-0.27,0.39-0.6,0.39-0.99v-5.21H180.74z"/>
			<path class="st0" d="M184.68,59.51c-0.28,0.24-0.47,0.5-0.57,0.78c-0.1,0.28-0.14,0.61-0.13,1h4.19v1.02h-4.19
				c-0.01,0.06-0.02,0.16,0,0.31c0.01,0.15,0.03,0.29,0.05,0.44c0.03,0.15,0.09,0.32,0.21,0.51c0.11,0.19,0.26,0.37,0.44,0.53
				c0.17,0.15,0.42,0.27,0.74,0.36c0.32,0.09,0.61,0.13,0.89,0.13h2.44v1.04h-2.44c-0.29,0-0.61-0.03-0.95-0.1s-0.62-0.16-0.83-0.27
				c-0.44-0.25-0.8-0.58-1.07-1c-0.12-0.17-0.21-0.35-0.29-0.54c-0.08-0.19-0.13-0.34-0.15-0.46s-0.04-0.23-0.05-0.33
				c-0.01-0.1-0.02-0.16-0.02-0.16c0.01-1.32,0.01-1.99,0.01-2.01c0.04-0.49,0.19-0.95,0.47-1.38c0.28-0.43,0.64-0.78,1.1-1.04
				c0.21-0.12,0.49-0.21,0.83-0.27c0.34-0.07,0.66-0.1,0.95-0.1h2.44v1.04h-2.44c-0.28,0-0.57,0.04-0.89,0.13
				C185.1,59.23,184.85,59.35,184.68,59.51z"/>
			<path class="st0" d="M194.49,62.78h-2.52v2.84h-1.05v-7.64h3.57c0.66,0,1.23,0.24,1.7,0.71c0.47,0.47,0.7,1.04,0.7,1.7
				c0,0.41-0.09,0.78-0.28,1.12s-0.43,0.62-0.74,0.84c0.36,0.38,0.54,0.83,0.54,1.34v1.93h-1.02v-1.93c0-0.24-0.08-0.45-0.25-0.62
				C194.97,62.87,194.75,62.78,194.49,62.78z M194.45,59.02c-1.39,0-2.22,0-2.48,0v2.72h2.52c0.38,0,0.7-0.13,0.96-0.39
				c0.26-0.26,0.39-0.58,0.39-0.96s-0.13-0.7-0.39-0.97C195.19,59.15,194.86,59.02,194.45,59.02z"/>
			<path class="st0" d="M208.72,61.55c0.38,0.38,0.6,0.82,0.68,1.33c0.07,0.51,0,0.99-0.23,1.44c-0.23,0.45-0.56,0.79-1.01,1.03
				c-0.13,0.07-0.27,0.13-0.41,0.17c-0.14,0.04-0.3,0.07-0.48,0.09s-0.32,0.02-0.43,0.03c-0.11,0-0.27,0-0.5,0
				c-0.23,0-0.38-0.01-0.45-0.01h-2.22V64.6h3.34c0.36,0,0.68-0.13,0.95-0.39c0.27-0.26,0.4-0.58,0.4-0.96s-0.13-0.7-0.4-0.97
				c-0.27-0.27-0.59-0.4-0.95-0.4c-0.72,0-1.25,0-1.57,0c-0.55,0-1.03-0.19-1.42-0.57c-0.32-0.33-0.51-0.71-0.56-1.14
				c-0.09-0.65,0.1-1.2,0.56-1.65c0.39-0.39,0.86-0.58,1.39-0.58h3.42v1.04c-1.53,0-2.57,0-3.11,0c-0.15,0-0.27,0-0.36,0.01
				c-0.08,0.01-0.18,0.03-0.29,0.08s-0.21,0.11-0.3,0.19c-0.2,0.2-0.29,0.44-0.27,0.73c0.02,0.29,0.15,0.52,0.4,0.69
				c0.07,0.05,0.16,0.09,0.27,0.12s0.19,0.04,0.25,0.04c0.06,0,0.16,0,0.31,0s0.29,0,0.44,0s0.43,0,0.85,0
				C207.68,60.84,208.25,61.08,208.72,61.55z"/>
			<path class="st0" d="M218.01,60.5c0.01,0.08,0.03,0.25,0.04,0.5s0.02,0.58,0.03,0.98s-0.04,0.82-0.13,1.24
				c-0.09,0.42-0.22,0.76-0.39,1.01c0,0.01,0,0.01,0,0.02c0,0.01-0.01,0.01-0.02,0.01c-0.25,0.4-0.6,0.73-1.03,0.97
				c-0.43,0.25-0.9,0.38-1.41,0.39h-0.7c-0.53,0-1.02-0.12-1.47-0.37c-0.45-0.25-0.81-0.58-1.08-1c-0.1-0.15-0.19-0.31-0.26-0.49
				c-0.07-0.18-0.13-0.34-0.16-0.49c-0.03-0.14-0.06-0.32-0.08-0.55c-0.02-0.22-0.03-0.39-0.03-0.51s0-0.31,0.01-0.57
				c0-0.26,0-0.43,0-0.53c0-0.96,0.33-1.75,0.99-2.35c0.58-0.54,1.27-0.81,2.07-0.81h0.7c0-0.01,0.07,0,0.2,0.01s0.3,0.05,0.52,0.11
				c0.21,0.06,0.4,0.13,0.56,0.21c0.39,0.2,0.72,0.46,0.99,0.8C217.7,59.5,217.91,59.97,218.01,60.5z M217,62.86
				c0.01-0.05,0.01-0.17,0.02-0.37c0-0.2,0.01-0.42,0.01-0.66c0-0.24,0-0.51,0-0.8c0-0.6-0.23-1.11-0.7-1.52
				c-0.38-0.34-0.82-0.5-1.32-0.5h-0.6c-0.51,0-0.95,0.17-1.33,0.5c-0.38,0.33-0.6,0.74-0.68,1.23c-0.01,0.12-0.02,0.48-0.02,1.07
				c0,0.59,0.01,0.94,0.02,1.07c0.08,0.5,0.31,0.91,0.68,1.23c0.38,0.33,0.82,0.49,1.33,0.49h0.6c0.5,0,0.94-0.16,1.32-0.49
				C216.7,63.77,216.93,63.36,217,62.86z"/>
			<path class="st0" d="M222.17,64.6c0.28,0,1.34,0,3.2,0v1.03c-2,0-3.03,0-3.1,0c-0.58-0.01-1.05-0.2-1.42-0.56
				c-0.36-0.36-0.55-0.77-0.56-1.24c0-0.07,0-2.01,0-5.83h1.05v5.91C221.44,64.34,221.71,64.57,222.17,64.6z"/>
			<path class="st0" d="M231.94,64.79c-0.59,0.56-1.29,0.85-2.11,0.85c-0.8,0-1.49-0.27-2.06-0.81c-0.66-0.62-1-1.37-1-2.25v-4.6
				h1.04v3.87c-0.01,0.59,0,0.93,0.02,1.03c0.07,0.49,0.3,0.9,0.67,1.23c0.38,0.33,0.82,0.5,1.33,0.5c0.53,0,0.99-0.18,1.38-0.54
				c0.39-0.36,0.6-0.8,0.64-1.33v-4.75h1.05l-0.01,4.75C232.85,63.54,232.53,64.23,231.94,64.79z"/>
			<path class="st0" d="M237.24,65.62v-6.61h-2.59v-1.03h6.21v1.03h-2.58v5.54v1.07H237.24z"/>
			<path class="st0" d="M243.77,57.99v7.64h-1.05l0.01-7.64H243.77z"/>
			<path class="st0" d="M252.71,60.5c0.01,0.08,0.03,0.25,0.04,0.5s0.02,0.58,0.03,0.98s-0.04,0.82-0.13,1.24
				c-0.09,0.42-0.22,0.76-0.39,1.01c0,0.01,0,0.01,0,0.02c0,0.01-0.01,0.01-0.02,0.01c-0.25,0.4-0.6,0.73-1.03,0.97
				c-0.43,0.25-0.9,0.38-1.41,0.39h-0.7c-0.53,0-1.02-0.12-1.47-0.37c-0.45-0.25-0.81-0.58-1.08-1c-0.1-0.15-0.19-0.31-0.26-0.49
				c-0.07-0.18-0.13-0.34-0.16-0.49c-0.03-0.14-0.06-0.32-0.08-0.55c-0.02-0.22-0.03-0.39-0.03-0.51s0-0.31,0.01-0.57
				c0-0.26,0-0.43,0-0.53c0-0.96,0.33-1.75,0.99-2.35c0.58-0.54,1.27-0.81,2.07-0.81h0.7c0-0.01,0.07,0,0.2,0.01s0.3,0.05,0.52,0.11
				c0.21,0.06,0.4,0.13,0.56,0.21c0.39,0.2,0.72,0.46,0.99,0.8C252.41,59.5,252.62,59.97,252.71,60.5z M251.71,62.86
				c0.01-0.05,0.01-0.17,0.02-0.37c0-0.2,0.01-0.42,0.01-0.66c0-0.24,0-0.51,0-0.8c0-0.6-0.23-1.11-0.7-1.52
				c-0.38-0.34-0.82-0.5-1.32-0.5h-0.6c-0.51,0-0.95,0.17-1.33,0.5c-0.38,0.33-0.6,0.74-0.68,1.23c-0.01,0.12-0.02,0.48-0.02,1.07
				c0,0.59,0.01,0.94,0.02,1.07c0.08,0.5,0.31,0.91,0.68,1.23c0.38,0.33,0.82,0.49,1.33,0.49h0.6c0.5,0,0.94-0.16,1.32-0.49
				C251.41,63.77,251.64,63.36,251.71,62.86z"/>
			<path class="st0" d="M255.89,58.82c0.59-0.56,1.29-0.85,2.12-0.85c0.79,0,1.48,0.27,2.07,0.81c0.66,0.62,0.99,1.37,0.99,2.25v4.6
				h-1.04v-3.87c0.01-0.58,0-0.93-0.02-1.03c-0.08-0.49-0.31-0.9-0.68-1.23s-0.81-0.5-1.32-0.5c-0.53,0-0.99,0.18-1.38,0.55
				s-0.6,0.81-0.64,1.32v4.75h-1.05l0.01-4.75C254.99,60.07,255.3,59.38,255.89,58.82z"/>
			<path class="st0" d="M268.39,61.55c0.38,0.38,0.6,0.82,0.68,1.33c0.07,0.51,0,0.99-0.23,1.44c-0.23,0.45-0.56,0.79-1.01,1.03
				c-0.13,0.07-0.27,0.13-0.41,0.17c-0.14,0.04-0.3,0.07-0.48,0.09s-0.32,0.02-0.43,0.03c-0.11,0-0.27,0-0.5,0
				c-0.23,0-0.38-0.01-0.45-0.01h-2.22V64.6h3.34c0.36,0,0.68-0.13,0.95-0.39c0.27-0.26,0.4-0.58,0.4-0.96s-0.13-0.7-0.4-0.97
				c-0.27-0.27-0.59-0.4-0.95-0.4c-0.72,0-1.25,0-1.57,0c-0.55,0-1.03-0.19-1.42-0.57c-0.32-0.33-0.51-0.71-0.56-1.14
				c-0.09-0.65,0.1-1.2,0.56-1.65c0.39-0.39,0.86-0.58,1.39-0.58h3.42v1.04c-1.53,0-2.57,0-3.11,0c-0.15,0-0.27,0-0.36,0.01
				c-0.08,0.01-0.18,0.03-0.29,0.08s-0.21,0.11-0.3,0.19c-0.2,0.2-0.29,0.44-0.27,0.73c0.02,0.29,0.15,0.52,0.4,0.69
				c0.07,0.05,0.16,0.09,0.27,0.12s0.19,0.04,0.25,0.04c0.06,0,0.16,0,0.31,0s0.29,0,0.44,0s0.43,0,0.85,0
				C267.35,60.84,267.91,61.08,268.39,61.55z"/>
		</g>
	</g>
</g>
</svg>
